<svg width="319" height="117" viewBox="0 0 319 117" fill="none" xmlns="http://www.w3.org/2000/svg">
<path d="M0.71875 97.0312V73.9062L46.5 1.875H84.1562V73.75H97.2812V97.0312H84.1562V115H55.7188V97.0312H0.71875ZM30.0938 73.75H56.3438V32.8125H55.4062L30.0938 72.9688V73.75ZM159 116.562C128.531 116.562 109.703 95.5469 109.625 58.4375C109.703 21.25 128.531 0.3125 159 0.3125C189.469 0.3125 208.375 21.4062 208.375 58.4375C208.375 95.7031 189.469 116.562 159 116.562ZM140.406 58.4375C140.328 82.4219 148.062 92.5781 159 92.6562C169.938 92.5781 177.672 82.4219 177.594 58.4375C177.516 34.9219 169.938 24.2969 159 24.2188C148.062 24.2969 140.562 34.9219 140.406 58.4375ZM221.812 97.0312V73.9062L267.594 1.875H305.25V73.75H318.375V97.0312H305.25V115H276.812V97.0312H221.812ZM251.188 73.75H277.438V32.8125H276.5L251.188 72.9688V73.75Z" fill="#F7F7F9"/>
</svg>
