<svg xmlns="http://www.w3.org/2000/svg" width="14" height="14" viewBox="0 0 14 14" fill="none">
  <path d="M10.4998 7.58341H7.58317V10.5001C7.58317 10.8209 7.32067 11.0834 6.99984 11.0834C6.679 11.0834 6.4165 10.8209 6.4165 10.5001V7.58341H3.49984C3.179 7.58341 2.9165 7.32091 2.9165 7.00008C2.9165 6.67925 3.179 6.41675 3.49984 6.41675H6.4165V3.50008C6.4165 3.17925 6.679 2.91675 6.99984 2.91675C7.32067 2.91675 7.58317 3.17925 7.58317 3.50008V6.41675H10.4998C10.8207 6.41675 11.0832 6.67925 11.0832 7.00008C11.0832 7.32091 10.8207 7.58341 10.4998 7.58341Z" fill="#565656"/>
</svg>