<svg width="50" height="33" viewBox="0 0 50 33" fill="none" xmlns="http://www.w3.org/2000/svg">
<path d="M1.72967 20.0033C7.35258 31.5831 19.7976 33.4413 25.3173 32.9229C40.3753 33.4972 47.4754 24.5491 49.1432 20.0033C53.3365 1.62879 41.1218 3.41518 34.4903 6.60519C26.6754 -5.35744 19.0829 1.62076 16.2635 6.60519C11.0218 1.10239 -5.29897 5.52855 1.72967 20.0033Z" fill="#46F2AA"/>
<path d="M15.3918 16.256V17.776H11.5518V16.256H15.3918ZM13.9838 17.776L14.2718 16.608C15.1145 16.608 15.8078 16.72 16.3518 16.944C16.9065 17.1573 17.3225 17.4613 17.5998 17.856C17.8771 18.24 18.0158 18.6987 18.0158 19.232C18.0158 20.2347 17.6425 20.9867 16.8958 21.488C16.1491 21.9787 15.0878 22.224 13.7118 22.224C13.4451 22.224 13.1518 22.2133 12.8318 22.192C12.5225 22.1707 12.2078 22.1333 11.8878 22.08C11.5785 22.0373 11.2851 21.968 11.0078 21.872C10.4958 21.7013 10.2398 21.3813 10.2398 20.912V13.104C10.2398 12.9013 10.2931 12.7467 10.3998 12.64C10.5065 12.5333 10.6558 12.448 10.8478 12.384C11.2105 12.2667 11.6318 12.1867 12.1118 12.144C12.5918 12.0907 13.0931 12.064 13.6158 12.064C14.8958 12.064 15.8878 12.288 16.5918 12.736C17.3065 13.184 17.6638 13.8667 17.6638 14.784C17.6638 15.2747 17.5251 15.7067 17.2478 16.08C16.9705 16.4427 16.5598 16.7253 16.0158 16.928C15.4825 17.1307 14.8051 17.232 13.9838 17.232L13.8718 16.256C14.4478 16.256 14.8745 16.144 15.1518 15.92C15.4398 15.6853 15.5838 15.3547 15.5838 14.928C15.5838 14.5227 15.4185 14.2133 15.0878 14C14.7571 13.7867 14.2718 13.68 13.6318 13.68C13.3758 13.68 13.1251 13.6907 12.8798 13.712C12.6345 13.7227 12.4265 13.744 12.2558 13.776V20.448C12.4585 20.4907 12.7038 20.528 12.9918 20.56C13.2798 20.5813 13.5571 20.592 13.8238 20.592C14.4745 20.592 14.9811 20.4747 15.3438 20.24C15.7171 20.0053 15.9038 19.6427 15.9038 19.152C15.9038 18.704 15.7385 18.3627 15.4078 18.128C15.0878 17.8933 14.6131 17.776 13.9838 17.776ZM20.6309 19.232L20.5349 17.808L24.7909 17.184C24.7589 16.7893 24.6043 16.448 24.3269 16.16C24.0496 15.8613 23.6549 15.712 23.1429 15.712C22.5989 15.712 22.1509 15.8987 21.7989 16.272C21.4469 16.6453 21.2656 17.1787 21.2549 17.872L21.3029 18.736C21.3883 19.3973 21.6443 19.888 22.0709 20.208C22.5083 20.5173 23.0523 20.672 23.7029 20.672C24.1509 20.672 24.5669 20.608 24.9509 20.48C25.3349 20.3413 25.6389 20.1973 25.8629 20.048C26.0123 20.1333 26.1349 20.2507 26.2309 20.4C26.3269 20.5493 26.3749 20.7093 26.3749 20.88C26.3749 21.1573 26.2523 21.4027 26.0069 21.616C25.7616 21.8187 25.4256 21.9733 24.9989 22.08C24.5829 22.1867 24.1083 22.24 23.5749 22.24C22.7429 22.24 22.0069 22.0853 21.3669 21.776C20.7376 21.4667 20.2416 21.008 19.8789 20.4C19.5269 19.7813 19.3509 19.024 19.3509 18.128C19.3509 17.4667 19.4523 16.8907 19.6549 16.4C19.8576 15.8987 20.1349 15.488 20.4869 15.168C20.8389 14.8373 21.2389 14.592 21.6869 14.432C22.1456 14.272 22.6309 14.192 23.1429 14.192C23.8469 14.192 24.4656 14.336 24.9989 14.624C25.5323 14.9013 25.9483 15.2907 26.2469 15.792C26.5456 16.2933 26.6949 16.8693 26.6949 17.52C26.6949 17.8187 26.6149 18.0427 26.4549 18.192C26.3056 18.3413 26.0923 18.4373 25.8149 18.48L20.6309 19.232ZM34.2483 19.856C34.2483 20.6027 33.9656 21.1893 33.4003 21.616C32.8456 22.032 32.035 22.24 30.9683 22.24C30.1043 22.24 29.395 22.112 28.8403 21.856C28.2963 21.6 28.0243 21.2587 28.0243 20.832C28.0243 20.6293 28.067 20.4533 28.1523 20.304C28.2483 20.1547 28.371 20.032 28.5203 19.936C28.819 20.128 29.1603 20.2987 29.5443 20.448C29.939 20.5973 30.3923 20.672 30.9043 20.672C31.7896 20.672 32.2323 20.4 32.2323 19.856C32.2323 19.632 32.1523 19.4507 31.9923 19.312C31.843 19.1733 31.603 19.0667 31.2723 18.992L30.3763 18.784C29.587 18.6133 29.0003 18.3467 28.6163 17.984C28.243 17.6107 28.0563 17.12 28.0563 16.512C28.0563 15.8187 28.3336 15.2587 28.8883 14.832C29.443 14.3947 30.2216 14.176 31.2243 14.176C31.7363 14.176 32.1896 14.2293 32.5843 14.336C32.9896 14.432 33.3096 14.576 33.5443 14.768C33.779 14.96 33.8963 15.1893 33.8963 15.456C33.8963 15.648 33.8536 15.8187 33.7683 15.968C33.6936 16.1067 33.5923 16.2187 33.4643 16.304C33.3363 16.2293 33.1603 16.1493 32.9363 16.064C32.7123 15.9787 32.4616 15.904 32.1843 15.84C31.907 15.776 31.635 15.744 31.3683 15.744C30.9523 15.744 30.627 15.808 30.3923 15.936C30.1576 16.064 30.0403 16.256 30.0403 16.512C30.0403 16.6827 30.1043 16.832 30.2323 16.96C30.371 17.0773 30.6056 17.1733 30.9363 17.248L31.7203 17.44C32.6056 17.6427 33.2456 17.9413 33.6403 18.336C34.0456 18.72 34.2483 19.2267 34.2483 19.856ZM35.8759 17.776H37.8759V19.648C37.8759 19.9893 37.9773 20.2347 38.1799 20.384C38.3933 20.5333 38.6866 20.608 39.0599 20.608C39.2306 20.608 39.4119 20.5867 39.6039 20.544C39.8066 20.4907 39.9773 20.4373 40.1159 20.384C40.2013 20.4693 40.2706 20.576 40.3239 20.704C40.3879 20.8213 40.4199 20.96 40.4199 21.12C40.4199 21.44 40.2759 21.7067 39.9879 21.92C39.6999 22.1227 39.2359 22.224 38.5959 22.224C37.7533 22.224 37.0866 22.0373 36.5959 21.664C36.1159 21.28 35.8759 20.6507 35.8759 19.776V17.776ZM37.0919 16.16V14.576H40.2279C40.2813 14.6507 40.3293 14.7573 40.3719 14.896C40.4146 15.0347 40.4359 15.1893 40.4359 15.36C40.4359 15.6267 40.3719 15.8293 40.2439 15.968C40.1159 16.096 39.9453 16.16 39.7319 16.16H37.0919ZM37.8759 18.208H35.8759V12.432C35.9613 12.4107 36.0839 12.384 36.2439 12.352C36.4146 12.32 36.5959 12.304 36.7879 12.304C37.1613 12.304 37.4333 12.3733 37.6039 12.512C37.7853 12.6507 37.8759 12.896 37.8759 13.248V18.208Z" fill="white"/>
</svg>
