<svg width="300" height="93" viewBox="0 0 300 93" fill="none" xmlns="http://www.w3.org/2000/svg">
<path d="M0 39.6193C0 33.8484 0.886962 28.7434 2.66089 24.3043C4.50872 19.8652 6.98482 16.1659 10.0892 13.2064C13.2675 10.173 16.9631 7.87948 21.1762 6.32577C25.4632 4.77208 30.0828 3.99523 35.035 3.99523C39.9872 3.99523 44.5698 4.77208 48.7829 6.32577C53.0699 7.87948 56.8025 10.173 59.9808 13.2064C63.1591 16.1659 65.6351 19.8652 67.4091 24.3043C69.2569 28.7434 70.1808 33.8484 70.1808 39.6193C70.1808 45.3902 69.2939 50.5322 67.52 55.0453C65.746 59.4845 63.2699 63.2208 60.0916 66.2542C56.9873 69.2136 53.2916 71.4702 49.0046 73.0239C44.7176 74.5776 40.0611 75.3544 35.035 75.3544C30.0089 75.3544 25.3523 74.5776 21.0653 73.0239C16.7784 71.3962 13.0827 69.0656 9.97832 66.0322C6.87395 62.9988 4.43481 59.2625 2.66089 54.8234C0.886962 50.3842 0 45.3162 0 39.6193ZM19.9566 39.6193C19.9566 46.352 21.324 51.3831 24.0588 54.7124C26.7936 58.0418 30.4524 59.7064 35.035 59.7064C39.6915 59.7064 43.3872 58.0418 46.122 54.7124C48.8568 51.3831 50.2242 46.352 50.2242 39.6193C50.2242 32.9606 48.8568 27.9666 46.122 24.6372C43.4611 21.3079 39.8024 19.6432 35.1459 19.6432C30.5632 19.6432 26.8675 21.3079 24.0588 24.6372C21.324 27.8926 19.9566 32.8866 19.9566 39.6193Z" fill="black"/>
<path d="M98.6883 73.2458C97.9492 73.4678 96.7666 73.6897 95.1405 73.9117C93.5883 74.1337 91.9622 74.2446 90.2622 74.2446C88.6361 74.2446 87.1578 74.1337 85.8274 73.9117C84.5709 73.6897 83.4991 73.2458 82.6122 72.58C81.7252 71.9141 81.023 71.0263 80.5056 69.9165C80.0621 68.7327 79.8404 67.216 79.8404 65.3663V32.0728C79.8404 30.3711 80.136 28.9284 80.7274 27.7446C81.3926 26.4869 82.3165 25.3771 83.4991 24.4153C84.6817 23.4535 86.123 22.6026 87.8231 21.8628C89.597 21.0489 91.4818 20.3461 93.4774 19.7542C95.4731 19.1623 97.5427 18.7184 99.6862 18.4224C101.83 18.0525 103.973 17.8675 106.117 17.8675C109.664 17.8675 112.473 18.5704 114.543 19.9761C116.612 21.3079 117.647 23.5274 117.647 26.6348C117.647 27.6706 117.499 28.7064 117.204 29.7422C116.908 30.7041 116.538 31.5919 116.095 32.4057C114.543 32.4057 112.954 32.4797 111.328 32.6277C109.701 32.7757 108.112 32.9976 106.56 33.2936C105.008 33.5895 103.53 33.9224 102.125 34.2924C101.64 34.4003 101.052 34.5771 100.5 34.7581C100.212 34.8526 99.6862 35.0359 99.6862 35.0359C99.6862 35.0359 99.2501 35.1687 99 35.5C98.7217 35.8686 98.6883 36.5848 98.6883 36.5848V37.7674V40.1326V44.8631V54.324V73.2458Z" fill="black"/>
<path d="M121.037 46.389C121.037 41.506 121.776 37.2888 123.255 33.7375C124.733 30.1122 126.766 27.1158 129.353 24.7482C132.013 22.3807 135.081 20.642 138.555 19.5322C142.103 18.3484 145.909 17.7566 149.974 17.7566C151.453 17.7566 152.894 17.9045 154.298 18.2005C155.703 18.4224 156.848 18.7184 157.735 19.0883V1.10978C158.475 0.887826 159.657 0.665869 161.283 0.443915C162.909 0.147972 164.572 0 166.272 0C167.898 0 169.34 0.110977 170.596 0.332931C171.927 0.55489 173.035 0.998805 173.922 1.66468C174.809 2.33055 175.475 3.25537 175.918 4.43914C176.362 5.54892 176.583 7.02864 176.583 8.87828V61.4821C176.583 64.9594 174.957 67.7339 171.705 69.8055C169.562 71.2112 166.79 72.432 163.39 73.4678C159.99 74.5776 156.072 75.1325 151.638 75.1325C146.833 75.1325 142.509 74.4666 138.666 73.1348C134.896 71.8031 131.681 69.8795 129.02 67.364C126.433 64.8485 124.437 61.852 123.033 58.3747C121.703 54.8234 121.037 50.8282 121.037 46.389ZM152.524 32.5167C148.533 32.5167 145.466 33.6635 143.322 35.957C141.179 38.2506 140.107 41.7279 140.107 46.389C140.107 50.9761 141.105 54.4535 143.1 56.821C145.096 59.1146 147.979 60.2613 151.748 60.2613C153.079 60.2613 154.261 60.0764 155.296 59.7064C156.405 59.2625 157.255 58.7816 157.846 58.2637V33.8484C156.368 32.9606 154.594 32.5167 152.524 32.5167Z" fill="black"/>
<path d="M211.39 61.3711C212.646 61.3711 214.014 61.2601 215.492 61.0382C217.044 60.7422 218.19 60.3723 218.929 59.9284V51.0501L210.946 51.716C208.877 51.864 207.177 52.3079 205.846 53.0477C204.516 53.7876 203.85 54.8974 203.85 56.3771C203.85 57.8568 204.405 59.0776 205.513 60.0394C206.696 60.9272 208.655 61.3711 211.39 61.3711ZM210.503 17.7566C214.494 17.7566 218.116 18.1635 221.368 18.9773C224.694 19.7912 227.503 21.0489 229.794 22.7506C232.159 24.3783 233.97 26.4869 235.227 29.0764C236.483 31.5919 237.112 34.5883 237.112 38.0656V62.9248C237.112 64.8484 236.557 66.4391 235.448 67.6969C234.414 68.8807 233.157 69.9165 231.679 70.8043C226.874 73.6897 220.111 75.1325 211.39 75.1325C207.472 75.1325 203.924 74.7625 200.746 74.0227C197.642 73.2828 194.944 72.173 192.653 70.6933C190.435 69.2136 188.698 67.327 187.442 65.0334C186.259 62.7399 185.668 60.0764 185.668 57.043C185.668 51.938 187.183 48.0167 190.213 45.2792C193.244 42.5418 197.937 40.8401 204.294 40.1742L218.818 38.6205V37.8437C218.818 35.6981 217.857 34.1814 215.935 33.2936C214.087 32.3317 211.39 31.8508 207.842 31.8508C205.033 31.8508 202.298 32.1468 199.637 32.7387C196.976 33.3305 194.574 34.0704 192.431 34.9582C191.47 34.2924 190.657 33.2936 189.992 31.9618C189.326 30.5561 188.994 29.1134 188.994 27.6336C188.994 25.71 189.437 24.1933 190.324 23.0835C191.285 21.8998 192.726 20.901 194.648 20.0871C196.792 19.2733 199.305 18.6814 202.187 18.3115C205.144 17.9415 207.916 17.7566 210.503 17.7566Z" fill="black"/>
<path d="M255.763 59.5955C254.95 57.7458 254.063 55.6742 253.102 53.3807C252.215 51.0871 251.254 48.4606 250.219 45.5012C249.258 42.5418 248.224 39.1754 247.115 35.4021C246.08 31.5549 244.971 27.1527 243.789 22.1957C244.824 21.1599 246.191 20.2721 247.891 19.5322C249.665 18.7184 251.587 18.3115 253.656 18.3115C256.243 18.3115 258.387 18.8663 260.087 19.9761C261.787 21.0119 263.043 23.0095 263.856 25.969L272.615 56.4881H273.059C273.946 53.9726 274.796 51.2351 275.609 48.2757C276.496 45.3162 277.346 42.2828 278.159 39.1754C278.972 35.994 279.711 32.8496 280.376 29.7422C281.115 26.5609 281.743 23.4535 282.261 20.42C284.922 19.0143 287.841 18.3115 291.02 18.3115C293.607 18.3115 295.75 18.8663 297.45 19.9761C299.15 21.0859 300 23.0095 300 25.747C300 27.7446 299.741 30.0752 299.224 32.7387C298.707 35.3282 298.004 38.1026 297.117 41.0621C296.304 44.0215 295.307 47.0919 294.124 50.2733C293.015 53.3807 291.833 56.4511 290.576 59.4845C289.32 62.5179 288.026 65.4033 286.696 68.1408C285.365 70.8043 284.072 73.2088 282.815 75.3544C280.746 78.9797 278.824 81.9391 277.05 84.2327C275.276 86.5263 273.576 88.3019 271.95 89.5597C270.324 90.8914 268.698 91.7792 267.072 92.2232C265.445 92.7411 263.745 93 261.972 93C258.867 93 256.354 92.0752 254.432 90.2255C252.511 88.3759 251.365 85.9714 250.995 83.0119C253.361 81.1623 255.726 79.0907 258.091 76.7971C260.456 74.5776 263.342 72.6833 262 70C261.5 69 261.5 69 260.419 67.364C259.324 65.706 257.463 63.3687 255.763 59.5955Z" fill="black"/>
<path fill-rule="evenodd" clip-rule="evenodd" d="M35.4277 75.3525C40.3035 75.3129 44.8289 74.5366 49.0037 73.0235C53.2907 71.4698 56.9864 69.2133 60.0907 66.2538C63.269 63.2204 65.7451 59.4841 67.519 55.045C69.293 50.5319 70.1799 45.3899 70.1799 39.619C70.1799 33.8481 69.256 28.7431 67.4082 24.3039C65.6342 19.8648 63.1581 16.1655 59.9799 13.2061C56.8016 10.1727 53.069 7.87912 48.782 6.32542C44.6808 4.81298 40.2294 4.03668 35.4277 3.99652V19.6449C39.9499 19.7112 43.5143 21.3752 46.1211 24.6369C48.8559 27.9662 50.2233 32.9603 50.2233 39.619C50.2233 46.3517 48.8559 51.3827 46.1211 54.7121C43.4638 57.947 39.8994 59.6104 35.4277 59.7021V75.3525Z" fill="#6EE266"/>
<path d="M61.7084 25.4316C61.4206 26.3 57.6149 25.0778 56.5916 22.2794C55.0885 18.098 53.0737 17.5834 53.6814 17.0044C54.289 16.4255 56.1119 17.6156 58.3505 19.9314C60.5891 22.2473 62.0282 24.531 61.7404 25.4316H61.7084Z" fill="white"/>
<path d="M129.068 34.5722C129.356 35.4406 133.162 34.2184 134.185 31.4201C135.688 27.2387 137.703 26.724 137.095 26.1451C136.488 25.5661 134.665 26.7562 132.426 29.072C130.188 31.3879 128.749 33.6716 129.036 34.5722H129.068Z" fill="white"/>
</svg>
