<svg width="46" height="30" viewBox="0 0 46 30" fill="none" xmlns="http://www.w3.org/2000/svg">
<mask id="path-1-inside-1_259_1045" fill="white">
<path d="M1.58613 18.1848C6.74242 28.7119 18.1547 30.4012 23.2163 29.9299C37.0247 30.452 43.5356 22.3174 45.065 18.1848C48.9104 1.48072 37.7093 3.10471 31.6281 6.00472C24.4617 -4.8704 17.4992 1.47342 14.9138 6.00472C10.1071 1.00217 -4.85923 5.02596 1.58613 18.1848Z"/>
</mask>
<path d="M1.58613 18.1848C6.74242 28.7119 18.1547 30.4012 23.2163 29.9299C37.0247 30.452 43.5356 22.3174 45.065 18.1848C48.9104 1.48072 37.7093 3.10471 31.6281 6.00472C24.4617 -4.8704 17.4992 1.47342 14.9138 6.00472C10.1071 1.00217 -4.85923 5.02596 1.58613 18.1848Z" fill="#6EE266"/>
<path d="M23.2163 29.9299L23.2434 29.2135C23.2122 29.2123 23.1809 29.2131 23.1499 29.216L23.2163 29.9299ZM1.58613 18.1848L2.23 17.8694L1.58613 18.1848ZM14.9138 6.00472L14.3968 6.50146C14.5535 6.66447 14.7778 6.74406 15.0021 6.71622C15.2265 6.68838 15.4245 6.55637 15.5365 6.36003L14.9138 6.00472ZM31.6281 6.00472L31.0294 6.39922C31.2263 6.69811 31.6136 6.80593 31.9367 6.65186L31.6281 6.00472ZM45.065 18.1848L45.7374 18.4337C45.748 18.4049 45.7568 18.3755 45.7637 18.3457L45.065 18.1848ZM23.1499 29.216C18.2274 29.6743 7.19731 28.0107 2.23 17.8694L0.942258 18.5002C6.28752 29.4131 18.082 31.128 23.2828 30.6438L23.1499 29.216ZM2.23 17.8694C0.672254 14.6891 0.450542 12.1502 0.96637 10.2111C1.48116 8.27596 2.75619 6.84022 4.38676 5.9064C6.02526 4.96803 8.00463 4.54983 9.85352 4.66258C11.7093 4.77575 13.3545 5.41669 14.3968 6.50146L15.4308 5.50797C14.0698 4.09147 12.0417 3.35943 9.9408 3.23131C7.83303 3.10277 5.57239 3.57496 3.67414 4.66208C1.76796 5.75375 0.209488 7.47858 -0.419361 9.84248C-1.04717 12.2025 -0.72267 15.1011 0.942258 18.5002L2.23 17.8694ZM15.5365 6.36003C16.7906 4.16214 19.0504 1.64011 21.7386 0.919843C23.0528 0.567728 24.4936 0.637514 26.0321 1.41881C27.5869 2.20841 29.2809 3.7458 31.0294 6.39922L32.2267 5.61021C30.3921 2.82607 28.5283 1.07827 26.6814 0.140307C24.8181 -0.80595 23.0129 -0.906088 21.3675 -0.465226C18.1366 0.400462 15.6225 3.316 14.2911 5.64941L15.5365 6.36003ZM31.9367 6.65186C33.4089 5.9498 35.1837 5.32917 36.9485 5.04313C38.722 4.75569 40.4195 4.81651 41.7866 5.40225C43.1176 5.97252 44.204 7.06777 44.7527 9.02072C45.3112 11.0092 45.3144 13.9053 44.3663 18.024L45.7637 18.3457C46.7382 14.1122 46.7833 10.9474 46.1331 8.63293C45.473 6.28297 44.1001 4.83346 42.3513 4.08421C40.6387 3.35044 38.6361 3.31699 36.7191 3.62768C34.7936 3.93976 32.8878 4.60963 31.3194 5.35757L31.9367 6.65186ZM44.3926 17.936C42.9616 21.8027 36.7163 29.7228 23.2434 29.2135L23.1892 30.6464C37.333 31.1811 44.1096 22.832 45.7374 18.4337L44.3926 17.936Z" fill="#6EE266" mask="url(#path-1-inside-1_259_1045)"/>
<path d="M10.5212 19.9033C11.4255 20.5779 15.4222 23.4293 21.6919 23.4336C29.5925 23.4666 34.5088 19.0061 35.1168 18.4426" stroke="white" stroke-width="2.15089" stroke-linecap="round" stroke-linejoin="round"/>
<ellipse cx="27.4452" cy="12.4726" rx="1.87513" ry="1.86668" fill="white"/>
<ellipse cx="14.66" cy="14.5947" rx="1.87513" ry="1.86668" fill="white"/>
</svg>
