<svg width="50" height="33" viewBox="0 0 50 33" fill="none" xmlns="http://www.w3.org/2000/svg">
<g filter="url(#filter0_d_234_947)">
<path d="M1.72967 20.0033C7.35258 31.5831 19.7976 33.4413 25.3173 32.9229C40.3753 33.4972 47.4754 24.5491 49.1432 20.0033C53.3365 1.62879 41.1218 3.41518 34.4903 6.60519C26.6754 -5.35744 19.0829 1.62076 16.2635 6.60519C11.0218 1.10239 -5.29897 5.52855 1.72967 20.0033Z" fill="#4681F2"/>
</g>
<path d="M10.5367 14.528L12.3927 14.48C12.4354 14.896 12.4674 15.328 12.4887 15.776C12.51 16.224 12.526 16.6667 12.5367 17.104C12.5474 17.5413 12.5527 17.9573 12.5527 18.352V21.984C12.4674 22.0053 12.334 22.032 12.1527 22.064C11.982 22.096 11.8007 22.112 11.6087 22.112C11.2247 22.112 10.9474 22.0427 10.7767 21.904C10.6167 21.7547 10.5367 21.5093 10.5367 21.168V14.528ZM18.7927 19.728L16.9367 19.776C16.8514 18.9547 16.8034 18.16 16.7927 17.392C16.782 16.6133 16.7767 15.8667 16.7767 15.152V12.272C16.862 12.2507 16.99 12.2293 17.1607 12.208C17.342 12.176 17.5234 12.16 17.7047 12.16C18.0994 12.16 18.3767 12.2293 18.5367 12.368C18.7074 12.5067 18.7927 12.752 18.7927 13.104V19.728ZM18.7927 19.056V17.968V21.744C18.6754 21.8507 18.5047 21.936 18.2807 22C18.0674 22.0747 17.8114 22.112 17.5127 22.112C17.1927 22.112 16.894 22.0587 16.6167 21.952C16.35 21.8347 16.1207 21.6 15.9287 21.248L13.6567 17.104C13.518 16.848 13.3794 16.5867 13.2407 16.32C13.102 16.0427 12.9687 15.776 12.8407 15.52C12.7127 15.2533 12.6007 15.008 12.5047 14.784L10.5367 15.232V12.64C10.654 12.4907 10.83 12.3733 11.0647 12.288C11.2994 12.2027 11.55 12.16 11.8167 12.16C12.1474 12.16 12.446 12.2187 12.7127 12.336C12.99 12.4533 13.2194 12.688 13.4007 13.04L15.7047 17.184C15.8434 17.4293 15.9767 17.6907 16.1047 17.968C16.2434 18.2347 16.3767 18.5013 16.5047 18.768C16.6327 19.024 16.7447 19.2693 16.8407 19.504L18.7927 19.056ZM21.9434 19.232L21.8474 17.808L26.1034 17.184C26.0714 16.7893 25.9168 16.448 25.6394 16.16C25.3621 15.8613 24.9674 15.712 24.4554 15.712C23.9114 15.712 23.4634 15.8987 23.1114 16.272C22.7594 16.6453 22.5781 17.1787 22.5674 17.872L22.6154 18.736C22.7008 19.3973 22.9568 19.888 23.3834 20.208C23.8208 20.5173 24.3648 20.672 25.0154 20.672C25.4634 20.672 25.8794 20.608 26.2634 20.48C26.6474 20.3413 26.9514 20.1973 27.1754 20.048C27.3248 20.1333 27.4474 20.2507 27.5434 20.4C27.6394 20.5493 27.6874 20.7093 27.6874 20.88C27.6874 21.1573 27.5648 21.4027 27.3194 21.616C27.0741 21.8187 26.7381 21.9733 26.3114 22.08C25.8954 22.1867 25.4208 22.24 24.8874 22.24C24.0554 22.24 23.3194 22.0853 22.6794 21.776C22.0501 21.4667 21.5541 21.008 21.1914 20.4C20.8394 19.7813 20.6634 19.024 20.6634 18.128C20.6634 17.4667 20.7648 16.8907 20.9674 16.4C21.1701 15.8987 21.4474 15.488 21.7994 15.168C22.1514 14.8373 22.5514 14.592 22.9994 14.432C23.4581 14.272 23.9434 14.192 24.4554 14.192C25.1594 14.192 25.7781 14.336 26.3114 14.624C26.8448 14.9013 27.2608 15.2907 27.5594 15.792C27.8581 16.2933 28.0074 16.8693 28.0074 17.52C28.0074 17.8187 27.9274 18.0427 27.7674 18.192C27.6181 18.3413 27.4048 18.4373 27.1274 18.48L21.9434 19.232ZM34.6674 17.088C34.5181 17.664 34.3474 18.2507 34.1554 18.848C33.9741 19.4453 33.7981 20.0053 33.6274 20.528C33.4674 21.0507 33.3234 21.4827 33.1954 21.824C33.0888 21.9093 32.9394 21.9787 32.7474 22.032C32.5661 22.096 32.3368 22.128 32.0594 22.128C31.7608 22.128 31.4888 22.0853 31.2434 22C31.0088 21.904 30.8541 21.7653 30.7794 21.584C30.6728 21.3707 30.5554 21.0667 30.4274 20.672C30.3101 20.2773 30.1821 19.824 30.0434 19.312C29.9154 18.7893 29.7821 18.2507 29.6434 17.696C29.5154 17.1413 29.3981 16.608 29.2914 16.096C29.1848 15.5733 29.0941 15.104 29.0194 14.688C29.1261 14.5813 29.2701 14.4853 29.4514 14.4C29.6434 14.304 29.8568 14.256 30.0914 14.256C30.3794 14.256 30.6088 14.3253 30.7794 14.464C30.9501 14.6027 31.0621 14.8373 31.1154 15.168C31.2114 15.808 31.3074 16.4 31.4034 16.944C31.5101 17.488 31.6061 17.9787 31.6914 18.416C31.7768 18.8533 31.8514 19.2267 31.9154 19.536C31.9901 19.8453 32.0488 20.08 32.0914 20.24H32.1554C32.2194 19.9947 32.3261 19.6053 32.4754 19.072C32.6248 18.5387 32.8008 17.9307 33.0034 17.248C33.2061 16.5547 33.4088 15.8613 33.6114 15.168C33.7608 15.0827 33.9154 15.0187 34.0754 14.976C34.2461 14.9227 34.4434 14.896 34.6674 14.896C34.9554 14.896 35.1954 14.944 35.3874 15.04C35.5901 15.136 35.7234 15.28 35.7874 15.472C36.0008 16.144 36.1981 16.8 36.3794 17.44C36.5608 18.08 36.7208 18.6453 36.8594 19.136C37.0088 19.6267 37.1101 19.9947 37.1634 20.24H37.2434C37.4248 19.3547 37.6114 18.4213 37.8034 17.44C38.0061 16.4587 38.1768 15.4773 38.3154 14.496C38.5821 14.336 38.8861 14.256 39.2274 14.256C39.5048 14.256 39.7288 14.32 39.8994 14.448C40.0808 14.5653 40.1714 14.7733 40.1714 15.072C40.1714 15.2107 40.1394 15.4507 40.0754 15.792C40.0221 16.1227 39.9421 16.5067 39.8354 16.944C39.7394 17.3813 39.6274 17.8453 39.4994 18.336C39.3714 18.816 39.2434 19.2853 39.1154 19.744C38.9874 20.192 38.8648 20.6027 38.7474 20.976C38.6301 21.3387 38.5288 21.6213 38.4434 21.824C38.3474 21.9093 38.1874 21.9787 37.9634 22.032C37.7394 22.096 37.4994 22.128 37.2434 22.128C36.5714 22.128 36.1714 21.9627 36.0434 21.632C35.9368 21.312 35.7981 20.9067 35.6274 20.416C35.4674 19.9253 35.3021 19.392 35.1314 18.816C34.9608 18.2293 34.8061 17.6533 34.6674 17.088Z" fill="white"/>
<defs>
<filter id="filter0_d_234_947" x="0" y="0" width="50" height="33" filterUnits="userSpaceOnUse" color-interpolation-filters="sRGB">
<feFlood flood-opacity="0" result="BackgroundImageFix"/>
<feColorMatrix in="SourceAlpha" type="matrix" values="0 0 0 0 0 0 0 0 0 0 0 0 0 0 0 0 0 0 127 0" result="hardAlpha"/>
<feOffset/>
<feComposite in2="hardAlpha" operator="out"/>
<feColorMatrix type="matrix" values="0 0 0 0 0 0 0 0 0 0.34 0 0 0 0 1 0 0 0 1 0"/>
<feBlend mode="normal" in2="BackgroundImageFix" result="effect1_dropShadow_234_947"/>
<feBlend mode="normal" in="SourceGraphic" in2="effect1_dropShadow_234_947" result="shape"/>
</filter>
</defs>
</svg>
